<svg width="130" height="25" viewBox="0 0 130 25" fill="none" xmlns="http://www.w3.org/2000/svg">
<g id="Group 237689">
<g id="Group 1974">
<g id="Group">
<g id="Group_2">
<g id="Group_3">
<path id="Vector" d="M33.4181 19.9957C37.3732 19.9957 40.1593 17.9615 40.1593 14.6299C40.1593 10.993 37.0282 10.0516 34.0817 9.16073C31.2692 8.34793 30.5529 7.76244 30.5529 6.66952C30.5529 5.65238 31.4561 4.89009 32.9941 4.89009C34.877 4.89009 35.8855 5.82917 36.5491 7.17924L39.6275 5.47328C38.3817 2.98208 36.046 1.48047 32.9941 1.48047C29.8103 1.48047 26.8901 3.41374 26.8901 6.77055C26.8901 10.1526 29.6498 11.2983 32.491 12.0859C35.2507 12.8505 36.4964 13.3579 36.4964 14.6804C36.4964 15.6723 35.7274 16.5632 33.5259 16.5632C31.2165 16.5632 29.9157 15.4955 29.2521 13.8424L26.1211 15.5965C27.1296 18.2416 29.6235 19.9957 33.4181 19.9957Z" fill="#F7F8F8"/>
</g>
</g>
</g>
<g id="Group_4">
<g id="Group_5">
<g id="Group_6">
<path id="Vector_2" d="M51.3598 19.996C54.7831 19.996 57.7824 18.3428 59.3467 15.7988L56.1893 14.0446C55.3149 15.5968 53.4823 16.5634 51.3598 16.5634C47.7256 16.5634 45.3372 14.1457 45.3372 10.7383C45.3372 7.30577 47.7256 4.89033 51.3598 4.89033C53.4823 4.89033 55.2885 5.85697 56.1893 7.43205L59.3467 5.67788C57.756 3.13386 54.7567 1.48071 51.3598 1.48071C45.7349 1.48071 41.7031 5.52634 41.7031 10.7383C41.7031 15.9274 45.7349 19.996 51.3598 19.996Z" fill="#F7F8F8"/>
</g>
</g>
</g>
<g id="Group_7">
<g id="Group_8">
<g id="Group_9">
<path id="Vector_3" d="M61.8125 1.83594V19.6394H65.4754V1.83594H61.8125Z" fill="#F7F8F8"/>
</g>
</g>
</g>
<g id="Group_10">
<g id="Group_11">
<g id="Group_12">
<path id="Vector_4" d="M87.1051 1.8374H83.3368L78.0306 10.257L72.698 1.8374H68.9297V19.6409H72.5926V8.11937L77.8197 16.3599H78.2438L83.4709 8.09411V19.6409H87.1051V1.8374Z" fill="#F7F8F8"/>
</g>
</g>
</g>
<g id="Group_13">
<g id="Group_14">
<g id="Group_15">
<path id="Vector_5" d="M90.5508 1.83594V19.6394H94.2136V1.83594H90.5508Z" fill="#F7F8F8"/>
</g>
</g>
</g>
<g id="Group_16">
<g id="Group_17">
<g id="Group_18">
<path id="Vector_6" d="M106.473 19.996C109.896 19.996 112.896 18.3428 114.46 15.7988L111.303 14.0446C110.428 15.5968 108.596 16.5634 106.473 16.5634C102.839 16.5634 100.451 14.1457 100.451 10.7383C100.451 7.30577 102.839 4.89033 106.473 4.89033C108.596 4.89033 110.402 5.85697 111.303 7.43205L114.46 5.67788C112.869 3.13386 109.87 1.48071 106.473 1.48071C100.848 1.48071 96.8164 5.52634 96.8164 10.7383C96.8164 15.9274 100.848 19.996 106.473 19.996Z" fill="#F7F8F8"/>
</g>
</g>
</g>
<g id="Group_19">
<g id="Group_20">
<g id="Group_21">
<path id="Vector_7" d="M123.262 19.996C127.217 19.996 130.003 17.9617 130.003 14.6301C130.003 10.9932 126.872 10.0518 123.925 9.16097C121.113 8.34817 120.397 7.76268 120.397 6.66977C120.397 5.65262 121.3 4.89033 122.838 4.89033C124.721 4.89033 125.729 5.82941 126.393 7.17949L129.471 5.47353C128.225 2.98232 125.89 1.48071 122.838 1.48071C119.654 1.48071 116.734 3.41398 116.734 6.77079C116.734 10.1529 119.494 11.2986 122.335 12.0861C125.094 12.8507 126.34 13.3581 126.34 14.6807C126.34 15.6725 125.571 16.5634 123.37 16.5634C121.06 16.5634 119.759 15.4957 119.096 13.8426L115.965 15.5968C116.973 18.2418 119.467 19.996 123.262 19.996Z" fill="#F7F8F8"/>
</g>
</g>
</g>
</g>
<g id="Group 1975">
<path id="Rectangle 213" d="M4.65234 2.90696C4.65234 1.30149 5.95383 0 7.55931 0H16.2802C17.8857 0 19.1872 1.30149 19.1872 2.90696C19.1872 4.51243 17.8857 5.81392 16.2802 5.81392H7.5593C5.95383 5.81392 4.65234 4.51243 4.65234 2.90696Z" fill="#F7F8F8"/>
<rect id="Rectangle 214" y="6.396" width="14.5348" height="5.81392" rx="2.90696" fill="#F7F8F8"/>
<rect id="Rectangle 215" x="6.97656" y="12.7905" width="14.5348" height="5.81392" rx="2.90696" fill="#F7F8F8"/>
<rect id="Rectangle 216" y="19.186" width="14.5348" height="5.81392" rx="2.90696" fill="#F7F8F8"/>
<ellipse id="Ellipse 459" cx="16.862" cy="9.30219" rx="1.16279" ry="1.16279" fill="#F7F8F8"/>
<ellipse id="Ellipse 460" cx="4.65107" cy="15.6975" rx="1.16279" ry="1.16279" fill="#F7F8F8"/>
</g>
</g>
</svg>
